<svg width="1910" height="1954" viewBox="0 0 1910 1954" fill="none" xmlns="http://www.w3.org/2000/svg">
<path fill-rule="evenodd" clip-rule="evenodd" d="M1816.58 984.831C1892.21 1093.28 1853.77 1243.12 1853.78 1375.31C1853.8 1558.52 1969.78 1816.92 1816.66 1917.66C1648.66 2028.2 1436.46 1774.67 1235.46 1782.13C1101 1787.11 1007.66 1971.77 874.476 1952.61C739.781 1933.22 647.921 1798.62 570.92 1686.48C504.726 1590.08 552.501 1433.63 464.912 1356.13C342.705 1247.99 -68.9315 1332.91 9.96821 1190.1C130.641 971.687 566.474 1136.01 702.215 926.616C786.274 796.945 394.183 727.178 409.714 573.453C420.829 463.437 657.144 647.88 738.001 572.405C853.288 464.793 729.906 107.414 886.214 128.67C1064.79 152.954 915.54 641.592 1094.57 620.893C1417.73 583.531 1552.34 -118.69 1847.74 17.5011C2112.55 139.588 1447.53 487.993 1438.15 779.298C1433.48 924.292 1733.58 865.816 1816.58 984.831Z" fill="#C4C4C4"/>
<path fill-rule="evenodd" clip-rule="evenodd" d="M1816.58 984.831C1892.21 1093.28 1853.77 1243.12 1853.78 1375.31C1853.8 1558.52 1969.78 1816.92 1816.66 1917.66C1648.66 2028.2 1436.46 1774.67 1235.46 1782.13C1101 1787.11 1007.66 1971.77 874.476 1952.61C739.781 1933.22 647.921 1798.62 570.92 1686.48C504.726 1590.08 552.501 1433.63 464.912 1356.13C342.705 1247.99 -68.9315 1332.91 9.96821 1190.1C130.641 971.687 566.474 1136.01 702.215 926.616C786.274 796.945 394.183 727.178 409.714 573.453C420.829 463.437 657.144 647.88 738.001 572.405C853.288 464.793 729.906 107.414 886.214 128.67C1064.79 152.954 915.54 641.592 1094.57 620.893C1417.73 583.531 1552.34 -118.69 1847.74 17.5011C2112.55 139.588 1447.53 487.993 1438.15 779.298C1433.48 924.292 1733.58 865.816 1816.58 984.831Z" fill="url(#paint0_linear_6022_6761)"/>
<defs>
<linearGradient id="paint0_linear_6022_6761" x1="1910" y1="977" x2="7.93643e-05" y2="977" gradientUnits="userSpaceOnUse">
<stop stop-color="#3026D4"/>
<stop offset="1" stop-color="#008DFF"/>
</linearGradient>
</defs>
</svg>
